<svg xmlns="http://www.w3.org/2000/svg" xmlns:xlink="http://www.w3.org/1999/xlink" width="500" zoomAndPan="magnify" viewBox="0 0 375 374.999991" height="500" preserveAspectRatio="xMidYMid meet" version="1.0"><defs><g/></defs><g fill="#ffffff" fill-opacity="1"><g transform="translate(63.542592, 210.401886)"><g><path d="M 14.375 -199.6875 L 14.375 0 L 62.625 0 L 62.625 -122.171875 L 99.078125 -28.484375 L 123.453125 -28.484375 L 159.65625 -122.171875 L 159.65625 0 L 208.15625 0 L 208.15625 -199.6875 L 159.65625 -199.6875 L 111.140625 -84.1875 L 62.625 -199.6875 Z M 14.375 -199.6875 "/></g></g></g><g fill="#ffffff" fill-opacity="1"><g transform="translate(283.074193, 211.084578)"><g><path d="M 21.125 -98.390625 C 13.28125 -98.390625 7.078125 -92.203125 7.078125 -84.359375 L 7.078125 -14.03125 C 7.078125 -6.203125 13.28125 0 21.125 0 L 73.09375 0 C 80.9375 0 87.140625 -6.203125 87.140625 -14.03125 L 87.140625 -30.359375 L 63.234375 -30.359375 L 63.234375 -23.515625 C 63.234375 -21.5 61.71875 -20.109375 59.6875 -20.109375 L 34.40625 -20.109375 C 32.375 -20.109375 30.859375 -21.5 30.859375 -23.515625 L 30.859375 -74.875 C 30.859375 -76.890625 32.375 -78.28125 34.40625 -78.28125 L 59.6875 -78.28125 C 61.71875 -78.28125 63.234375 -76.890625 63.234375 -74.875 L 63.234375 -68.046875 L 87.140625 -68.046875 L 87.140625 -84.359375 C 87.140625 -92.203125 80.9375 -98.390625 73.09375 -98.390625 Z M 21.125 -98.390625 "/></g></g></g><g fill="#ffffff" fill-opacity="1"><g transform="translate(261.926369, 361.820153)"><g><path d="M 29.4375 -142.265625 C 18.46875 -142.265625 9.140625 -132.9375 9.140625 -121.96875 L 9.140625 -104.046875 L 43.703125 -104.046875 L 43.703125 -108.25 C 43.703125 -110.8125 46.265625 -113.1875 48.828125 -113.1875 L 67.109375 -113.1875 C 69.671875 -113.1875 72.046875 -110.8125 72.046875 -108.25 L 72.046875 -91.0625 C 72.046875 -88.140625 69.859375 -85.765625 66.921875 -85.765625 L 29.4375 -85.765625 L 29.4375 -56.5 L 66.921875 -56.5 C 69.859375 -56.5 72.046875 -54.125 72.046875 -51.203125 L 72.046875 -34.015625 C 72.046875 -31.453125 69.671875 -29.078125 67.109375 -29.078125 L 48.828125 -29.078125 C 46.265625 -29.078125 43.703125 -31.453125 43.703125 -34.015625 L 43.703125 -38.21875 L 9.140625 -38.21875 L 9.140625 -20.296875 C 9.140625 -9.328125 18.46875 0 29.4375 0 L 86.3125 0 C 97.640625 0 106.609375 -8.953125 106.609375 -20.296875 L 106.609375 -51.9375 C 106.609375 -60.703125 101.125 -68.203125 93.4375 -71.125 C 101.125 -74.0625 106.609375 -81.375 106.609375 -90.15625 L 106.609375 -121.96875 C 106.609375 -133.296875 97.640625 -142.265625 86.3125 -142.265625 Z M 29.4375 -142.265625 "/></g></g></g><g fill="#ffffff" fill-opacity="1"><g transform="translate(76.467585, 367.051711)"><g><path d="M 2.015625 -142.796875 L 38.359375 0 L 72.875 0 L 91.765625 -87 L 110.671875 0 L 145.1875 0 L 181.53125 -142.796875 L 145.734375 -142.796875 L 127.375 -56.90625 L 109.03125 -142.796875 L 74.515625 -142.796875 L 56.171875 -56.90625 L 37.8125 -142.796875 Z M 2.015625 -142.796875 "/></g></g></g></svg>