<svg xmlns="http://www.w3.org/2000/svg"  viewBox="0 0 64 64" width="128px" height="128px" baseProfile="basic"><path fill="#85cbf8" d="M62.34,45.27C59.706,20.887,51.954,9.966,48,7c-1,1-8.92,8.72-8.92,8.72 c-4.671-0.96-9.489-0.96-14.16,0C24.92,15.72,18,9,16,7C12.064,9.952,4.302,20.784,1.66,45.24c-0.134,1.319,0.394,2.618,1.41,3.47 c3.812,3.206,8.154,5.723,12.83,7.44c0.969,0.368,2.059-0.067,2.51-1L21,50v-0.3c7.23,1.743,14.77,1.743,22,0V50l2.59,5.18 c0.451,0.934,1.541,1.368,2.51,1c4.674-1.707,9.015-4.215,12.83-7.41C61.955,47.912,62.484,46.599,62.34,45.27z M22,40 c-2.761,0-5-2.693-5-6c0-0.092,0.008-0.183,0.012-0.274c3.352-0.535,6.97-1.755,9.349-2.659C26.766,31.935,27,32.934,27,34 C27,37.316,24.761,40,22,40z M42,40c-2.761,0-5-2.693-5-6c0-1.107,0.255-2.142,0.693-3.034c2.295,0.882,5.908,2.127,9.293,2.709 C46.991,33.783,47,33.89,47,34C47,37.316,44.761,40,42,40z"/><path fill="#9fddff" d="M48,21.74L47.89,22c-0.55,1.29-2.043,1.89-3.333,1.34c-0.153-0.065-0.3-0.146-0.437-0.24 C40.45,20.951,36.251,19.877,32,20c-4.158-0.093-8.264,0.944-11.88,3c-1.176,0.723-2.716,0.355-3.439-0.822 c-0.004-0.006-0.008-0.012-0.011-0.018L16.6,22c-0.724-1.189-0.348-2.739,0.841-3.463c0.09-0.055,0.183-0.104,0.279-0.147 C22.2,16.301,27.059,15.147,32,15c5,0,11.21,2.13,14.55,3.43c1.3,0.481,1.964,1.925,1.483,3.225 C48.023,21.683,48.012,21.712,48,21.74z"/><path fill="#8d6c9f" d="M17.442,19.537c-0.337,0-0.667-0.171-0.855-0.48c-0.288-0.472-0.138-1.087,0.334-1.374 c0.126-0.077,0.257-0.146,0.392-0.206c4.614-2.152,9.551-3.324,14.658-3.477c0,0,0.001,0,0.001,0 c5.187,0,11.585,2.191,14.941,3.498c0.515,0.2,0.769,0.78,0.568,1.294s-0.778,0.77-1.295,0.569C42.962,18.106,36.83,16,32,16 c-4.803,0.144-9.476,1.253-13.857,3.296c-0.073,0.033-0.128,0.062-0.182,0.094C17.798,19.49,17.619,19.537,17.442,19.537z"/><path fill="#8d6c9f" d="M34.67,54c-3.836,0.268-7.69-0.049-11.43-0.94c-0.528-0.163-1.088,0.132-1.251,0.66 c-0.163,0.528,0.132,1.088,0.66,1.251c0.04,0.012,0.08,0.022,0.121,0.029c3.022,0.735,6.12,1.111,9.23,1.12c0.94,0,1.88,0,2.81-0.1 c0.552-0.039,0.969-0.518,0.93-1.07s-0.518-0.969-1.07-0.93L34.67,54z M40.77,53.09c-0.84,0.2-1.69,0.38-2.53,0.52 c-0.552,0.044-0.964,0.528-0.92,1.08c0.044,0.552,0.528,0.964,1.08,0.92h0.17c0.89-0.15,1.78-0.33,2.67-0.54 c0.538-0.13,0.87-0.672,0.74-1.21c-0.13-0.538-0.672-0.87-1.21-0.74L40.77,53.09z M32,18.42c-0.552,0-1,0.448-1,1v1.76 c0,0.552,0.448,1,1,1s1-0.448,1-1v-1.76C33,18.868,32.552,18.42,32,18.42z M36.75,22.61h0.24c0.474,0.013,0.891-0.309,1-0.77 l0.42-1.72c0.096-0.544-0.266-1.063-0.81-1.159c-0.496-0.088-0.981,0.207-1.13,0.689L36,21.4c-0.13,0.537,0.2,1.077,0.737,1.207 C36.741,22.608,36.746,22.609,36.75,22.61z M41.31,23.89c0.492,0.247,1.09,0.05,1.34-0.44l0.81-1.61 c0.285-0.473,0.132-1.088-0.341-1.372c-0.473-0.285-1.088-0.132-1.372,0.341c-0.025,0.042-0.047,0.086-0.066,0.131l-0.81,1.61 C40.623,23.042,40.82,23.64,41.31,23.89z M26,21.87c0.109,0.461,0.526,0.783,1,0.77h0.24c0.541-0.113,0.887-0.643,0.773-1.184 C28.01,21.437,28.005,21.419,28,21.4l-0.42-1.72c-0.163-0.528-0.723-0.823-1.251-0.66c-0.482,0.149-0.777,0.633-0.689,1.13 L26,21.87z M21.35,23.45c0.212,0.51,0.798,0.751,1.308,0.539c0.51-0.212,0.751-0.798,0.539-1.308 c-0.019-0.045-0.041-0.089-0.066-0.131l-0.81-1.61c-0.212-0.51-0.798-0.751-1.308-0.539c-0.51,0.212-0.751,0.798-0.539,1.308 c0.019,0.045,0.041,0.089,0.066,0.131L21.35,23.45z"/><path fill="#8d6c9f" d="M47.379,57.315c-1.114,0-2.172-0.629-2.689-1.7l-2.249-4.759c-6.848,1.525-14.033,1.525-20.882,0 l-2.245,4.723c-0.685,1.417-2.302,2.062-3.768,1.507c-4.79-1.759-9.208-4.32-13.12-7.61c-1.271-1.065-1.929-2.687-1.761-4.337 C3.259,21.133,11.438,9.172,15.4,6.2c0.398-0.299,0.956-0.259,1.307,0.093c1.704,1.704,7.062,6.915,8.533,8.344 c4.489-0.855,9.031-0.855,13.519,0c1.586-1.547,7.675-7.485,8.534-8.344C47.644,5.941,48.202,5.901,48.6,6.2 c3.962,2.971,12.14,14.938,14.734,38.962c0.181,1.665-0.479,3.3-1.763,4.375c-3.915,3.279-8.333,5.831-13.129,7.582 C48.093,57.252,47.732,57.315,47.379,57.315z M43,48.7c0.38,0,0.736,0.217,0.904,0.572l2.59,5.479 c0.223,0.463,0.764,0.679,1.25,0.493c4.59-1.676,8.806-4.111,12.543-7.242c0.771-0.646,1.167-1.626,1.059-2.625 c0-0.001,0-0.001,0-0.001c-2.224-20.585-8.917-33.064-13.287-37.03c-2.12,2.084-7.997,7.813-8.28,8.089 c-0.237,0.231-0.578,0.33-0.899,0.263c-4.565-0.938-9.193-0.938-13.758,0c-0.324,0.066-0.66-0.031-0.898-0.262 c-0.063-0.061-5.764-5.598-8.284-8.088C11.568,12.316,4.875,24.788,2.654,45.348c-0.1,0.983,0.295,1.956,1.058,2.596 c3.735,3.142,7.951,5.586,12.532,7.269c0.497,0.186,1.038-0.026,1.265-0.497l2.587-5.443c0.203-0.429,0.68-0.653,1.138-0.544 c7.043,1.697,14.488,1.697,21.531,0C42.844,48.709,42.923,48.7,43,48.7z"/><path fill="#8d6c9f" d="M35.15,48.125c-1.168,0-2.285-0.429-3.15-1.182c-0.865,0.753-1.982,1.182-3.15,1.182 c-2.647,0-4.801-2.153-4.801-4.8c0-0.525,0.426-0.95,0.951-0.95s0.951,0.425,0.951,0.95c0,1.599,1.301,2.899,2.899,2.899 c0.941,0,1.828-0.463,2.373-1.237c0.355-0.506,1.199-0.506,1.555,0c0.545,0.774,1.432,1.237,2.373,1.237 c1.599,0,2.899-1.301,2.899-2.899c0-0.525,0.425-0.95,0.95-0.95s0.95,0.425,0.95,0.95C39.95,45.972,37.797,48.125,35.15,48.125z"/><path fill="#8d6c9f" d="M52,47c-1.654,0-3-1.346-3-3v-1c0-0.553,0.447-1,1-1s1,0.447,1,1v1c0,0.552,0.448,1,1,1s1-0.448,1-1 v-1c0-0.553,0.447-1,1-1s1,0.447,1,1v1C55,45.654,53.654,47,52,47z"/><path fill="#8d6c9f" d="M13,30c-1.654,0-3-1.346-3-3v-1c0-0.552,0.448-1,1-1s1,0.448,1,1v1c0,0.551,0.449,1,1,1s1-0.449,1-1 v-1c0-0.552,0.448-1,1-1s1,0.448,1,1v1C16,28.654,14.654,30,13,30z"/><path fill="#8d6c9f" d="M22,40.95c-3.281,0-5.951-3.118-5.951-6.95c0-0.08,0.004-0.158,0.009-0.237 c0.025-0.445,0.363-0.905,0.804-0.976c3.265-0.521,6.783-1.706,9.161-2.608c0.465-0.175,0.987,0.035,1.198,0.486 c0.477,1.02,0.729,2.173,0.729,3.335C27.951,37.832,25.281,40.95,22,40.95z M17.972,34.523c0.21,2.539,1.937,4.526,4.028,4.526 c2.233,0,4.049-2.266,4.049-5.05c0-0.585-0.083-1.165-0.243-1.712C23.616,33.085,20.756,34.002,17.972,34.523z"/><path fill="#8d6c9f" d="M42,40.95c-3.281,0-5.95-3.118-5.95-6.95c0-1.205,0.273-2.398,0.79-3.452 c0.217-0.443,0.74-0.645,1.194-0.469c2.348,0.902,5.834,2.096,9.113,2.659c0.44,0.075,0.769,0.447,0.788,0.894 c0.01,0.182,0.015,0.274,0.015,0.368C47.95,37.832,45.281,40.95,42,40.95z M38.228,32.184c-0.183,0.58-0.277,1.195-0.277,1.816 c0,2.784,1.816,5.05,4.05,5.05c2.107,0,3.844-2.018,4.032-4.585C43.24,33.912,40.396,32.984,38.228,32.184z"/></svg>