<?xml version="1.0" standalone="no"?>
<!DOCTYPE svg PUBLIC "-//W3C//DTD SVG 20010904//EN"
 "http://www.w3.org/TR/2001/REC-SVG-20010904/DTD/svg10.dtd">
<svg version="1.0" xmlns="http://www.w3.org/2000/svg"
 width="1100.000000pt" height="450.000000pt" viewBox="0 0 1100.000000 450.000000"
 preserveAspectRatio="xMidYMid meet">

<g transform="translate(0.000000,450.000000) scale(0.100000,-0.100000)"
fill="#fff" stroke="none">
<path d="M6775 3810 c-192 -20 -374 -136 -466 -295 -57 -98 -74 -168 -74 -300
0 -134 11 -185 61 -285 96 -194 281 -314 505 -327 71 -4 116 -1 173 11 99 23
236 91 306 154 l55 49 -88 97 -89 96 -41 -34 c-96 -78 -218 -116 -309 -97
-178 37 -289 206 -258 394 35 222 248 340 445 249 35 -17 86 -51 113 -76 l49
-46 89 107 88 106 -49 43 c-128 113 -327 173 -510 154z"/>
<path d="M157 3793 c-4 -3 -7 -269 -7 -590 l0 -583 100 0 100 0 0 240 0 240
270 0 270 0 0 90 0 90 -270 0 -270 0 0 170 0 170 295 0 295 0 0 90 0 90 -388
0 c-214 0 -392 -3 -395 -7z"/>
<path d="M1100 3404 c0 -422 4 -464 52 -558 26 -52 110 -139 162 -170 77 -45
171 -67 286 -67 169 0 281 40 375 135 28 28 63 76 78 106 52 106 57 164 55
572 l-3 373 -97 3 -98 3 0 -377 c0 -438 -3 -462 -76 -543 -61 -68 -124 -93
-231 -93 -75 0 -92 4 -149 32 -69 33 -100 67 -136 146 -22 48 -23 58 -26 442
l-4 392 -94 0 -94 0 0 -396z"/>
<path d="M2398 3794 c-5 -4 -8 -270 -8 -591 l0 -583 100 0 100 0 0 175 0 175
160 0 c88 0 163 1 168 2 4 1 55 -77 113 -173 l105 -174 113 -3 c90 -2 111 0
105 10 -4 7 -61 93 -126 190 -65 98 -118 181 -118 185 0 5 20 19 45 32 59 31
120 99 153 169 25 52 27 68 27 182 0 114 -2 130 -26 181 -48 101 -136 169
-266 205 -44 12 -127 17 -348 21 -159 3 -293 2 -297 -3z m633 -206 c68 -31
104 -76 120 -146 21 -100 -18 -202 -94 -246 -62 -36 -131 -46 -307 -46 l-160
0 0 236 0 236 193 -4 c181 -4 195 -5 248 -30z"/>
<path d="M3610 3211 l0 -591 100 0 100 0 0 175 0 174 166 3 165 3 107 -177
107 -178 113 0 112 0 -131 196 c-72 108 -129 197 -127 199 2 1 22 12 46 24
219 111 260 475 73 644 -103 93 -171 107 -538 114 l-293 6 0 -592z m621 385
c53 -20 112 -77 128 -125 29 -87 7 -189 -53 -246 -61 -59 -95 -67 -308 -72
l-188 -5 0 237 0 237 188 -4 c141 -4 198 -9 233 -22z"/>
<path d="M4678 3794 c-3 -3 93 -182 213 -399 l219 -395 0 -190 0 -190 95 0 95
0 0 192 0 192 209 381 c116 209 213 388 216 398 7 15 -2 17 -89 17 -93 0 -96
-1 -113 -27 -10 -15 -84 -141 -164 -281 -80 -140 -149 -255 -153 -256 -5 0
-83 126 -174 282 l-165 282 -92 0 c-50 0 -94 -2 -97 -6z"/>
<path d="M7470 3210 l0 -590 150 0 150 0 0 225 0 225 240 0 240 0 0 -225 0
-225 155 0 155 0 -2 588 -3 587 -152 3 -153 3 0 -241 0 -240 -240 0 -240 0 0
240 0 240 -150 0 -150 0 0 -590z"/>
<path d="M9166 3792 c-3 -5 -118 -271 -255 -591 l-249 -581 158 0 158 0 40
103 39 102 256 3 255 2 40 -102 39 -103 162 -3 c88 -1 161 1 161 5 0 5 -109
269 -243 588 l-244 580 -156 3 c-85 1 -158 -2 -161 -6z m228 -512 c42 -107 76
-201 76 -207 0 -10 -38 -13 -155 -13 -114 0 -155 3 -155 12 0 13 153 408 157
405 1 -2 36 -90 77 -197z"/>
<path d="M9980 3670 l0 -130 175 0 175 0 0 -465 c0 -539 7 -498 -108 -618
-160 -165 -431 -281 -687 -294 -121 -6 -241 8 -505 57 -316 58 -369 64 -630
63 -200 0 -272 -4 -390 -22 -174 -26 -379 -71 -475 -104 -69 -24 -190 -82
-150 -73 11 3 56 14 100 25 192 48 397 65 460 37 l30 -13 -45 -8 c-185 -31
-456 -143 -630 -260 -251 -168 -570 -519 -570 -625 0 -19 5 -17 48 18 59 49
174 117 242 143 29 11 54 19 55 17 1 -2 -27 -29 -64 -61 -166 -147 -267 -306
-317 -502 -46 -184 -43 -336 13 -515 l17 -55 8 45 c59 298 220 646 395 855 49
59 143 135 143 117 0 -5 -6 -15 -14 -21 -21 -18 -74 -150 -92 -229 -12 -52
-13 -74 -4 -97 11 -29 12 -28 47 60 43 108 73 153 146 222 97 92 292 203 504
287 148 59 330 98 448 95 l40 -1 -51 -23 c-200 -92 -369 -174 -423 -207 -65
-39 -221 -165 -221 -179 0 -4 44 12 98 36 123 54 262 98 390 125 127 25 141
25 72 -4 -198 -82 -362 -180 -525 -312 -92 -75 -225 -198 -225 -208 0 -4 26
15 58 41 170 139 437 283 665 358 137 45 376 96 445 94 35 0 33 -2 -29 -24
-91 -31 -223 -98 -289 -146 -30 -21 -50 -39 -45 -39 6 0 53 11 105 24 256 65
609 127 710 125 28 0 15 -7 -65 -33 -143 -48 -406 -147 -505 -190 -216 -95
-475 -273 -668 -460 -58 -56 -102 -116 -86 -116 4 0 41 26 83 59 156 120 387
246 630 343 136 55 691 241 698 234 2 -2 -18 -16 -44 -31 -72 -43 -220 -199
-281 -298 -82 -132 -79 -145 14 -57 183 174 341 291 554 412 121 69 161 87
412 192 326 136 529 261 666 411 102 111 190 282 229 443 36 152 13 388 -52
526 l-25 53 0 386 0 387 175 0 175 0 0 130 0 130 -505 0 -505 0 0 -130z
m-1265 -1620 c61 -6 187 -13 280 -17 121 -5 158 -9 130 -14 -68 -13 -393 -9
-540 6 -77 8 -183 15 -235 16 -77 2 -86 3 -50 9 67 10 290 10 415 0z m1445 -1
c-8 -6 -77 -41 -152 -78 -238 -118 -487 -186 -719 -195 -63 -3 -100 -3 -84 0
165 24 305 53 432 90 148 42 412 138 483 175 38 20 64 25 40 8z m-2271 -273
c-2 -2 -85 -31 -184 -65 -99 -35 -211 -78 -250 -96 -38 -18 -71 -32 -73 -31
-4 5 101 72 154 99 60 30 157 62 244 81 63 14 118 20 109 12z m2245 -47 c-41
-44 -133 -105 -207 -138 -138 -62 -269 -87 -562 -106 -126 -8 -246 -17 -265
-20 -30 -4 -32 -3 -10 5 14 5 151 25 306 44 415 52 596 105 724 215 45 39 51
39 14 0z"/>
</g>
</svg>
