<?xml version="1.0" standalone="no"?>
<!DOCTYPE svg PUBLIC "-//W3C//DTD SVG 20010904//EN"
 "http://www.w3.org/TR/2001/REC-SVG-20010904/DTD/svg10.dtd">
<svg version="1.0" xmlns="http://www.w3.org/2000/svg"
 width="1100.000000pt" height="450.000000pt" viewBox="0 0 1100.000000 450.000000"
 preserveAspectRatio="xMidYMid meet">

<g transform="translate(0.000000,450.000000) scale(0.100000,-0.100000)"
fill="#fff" stroke="none">
<path d="M10640 2685 l0 -65 -153 0 -154 0 -19 -42 c-27 -62 -143 -179 -232
-236 -166 -106 -360 -170 -547 -179 -123 -6 -235 7 -535 62 -300 55 -339 58
-600 58 -200 0 -271 -4 -390 -22 -174 -26 -379 -71 -475 -104 -69 -24 -190
-82 -150 -73 11 3 56 14 100 25 192 48 397 65 460 37 l30 -13 -45 -8 c-209
-36 -471 -147 -662 -281 -240 -169 -538 -504 -538 -606 0 -22 0 -21 28 4 60
58 302 192 317 176 2 -2 -28 -30 -66 -63 -225 -194 -349 -462 -349 -753 0 -72
28 -225 52 -282 l14 -34 18 89 c49 255 220 615 383 810 49 59 143 135 143 117
0 -5 -6 -15 -14 -21 -21 -17 -73 -147 -91 -226 -15 -62 -13 -125 3 -125 4 0
16 24 26 52 72 203 186 314 461 451 253 126 477 190 650 186 l40 -1 -45 -20
c-221 -101 -373 -175 -427 -209 -68 -41 -218 -162 -226 -182 -3 -7 30 4 72 25
138 66 354 132 501 153 38 5 28 -1 -67 -43 -223 -99 -392 -212 -606 -406 -90
-82 -110 -115 -29 -49 170 139 437 283 665 358 137 45 376 96 445 94 35 0 33
-2 -29 -24 -95 -33 -186 -78 -268 -132 -73 -49 -92 -70 -43 -52 75 29 487 115
642 135 184 23 202 18 85 -20 -284 -95 -541 -200 -670 -273 -263 -151 -595
-429 -595 -498 0 -4 37 22 83 58 160 125 387 249 636 349 136 55 691 241 698
234 2 -2 -15 -15 -39 -29 -57 -33 -164 -132 -216 -200 -50 -65 -144 -218 -137
-225 2 -2 46 35 97 83 178 167 347 291 563 412 97 54 146 76 387 177 419 174
631 326 768 549 56 90 102 201 127 305 24 100 22 276 -5 382 -20 84 -56 180
-67 180 -3 0 -5 -29 -5 -65z m-1925 -635 c61 -6 187 -13 280 -17 121 -5 158
-9 130 -14 -68 -13 -393 -9 -540 6 -77 8 -183 15 -235 16 -77 2 -86 3 -50 9
67 10 290 10 415 0z m1445 -1 c-8 -6 -77 -41 -152 -78 -238 -118 -487 -186
-719 -195 -63 -3 -100 -3 -84 0 165 24 305 53 432 90 148 42 412 138 483 175
38 20 64 25 40 8z m-2271 -273 c-2 -2 -85 -31 -184 -65 -99 -35 -211 -78 -250
-96 -38 -18 -71 -32 -73 -31 -4 5 101 72 154 99 60 30 157 62 244 81 63 14
118 20 109 12z m2245 -47 c-41 -44 -133 -105 -207 -138 -138 -62 -269 -87
-562 -106 -126 -8 -246 -17 -265 -20 -30 -4 -32 -3 -10 5 14 5 151 25 306 44
415 52 596 105 724 215 45 39 51 39 14 0z"/>
</g>
</svg>
