<svg xmlns="http://www.w3.org/2000/svg" version="1.1" xmlns:xlink="http://www.w3.org/1999/xlink" width="512" height="512" x="0" y="0" viewBox="0 0 100 100" style="enable-background:new 0 0 512 512" xml:space="preserve" class=""><g><path d="M54.2 100c-10.8 0-21.6-3.6-30.4-10.3C12 80.9 4.8 67 4.2 52.1c-1-18 8.8-35.5 24.2-44.8C37.2 2.1 47-.5 57.3.1c2.6 0 5.2 2.1 5.7 4.1 1 2.6.5 5.2-1.5 7.2-8.2 8.2-11.3 19.6-9.3 30.9 3.6 16.5 19.1 27.8 36.1 26.3 2.6 0 5.2 1 6.7 3.6 1.5 2.1 1 5.2-.5 7.2-7.2 9.8-18 17-29.9 19.6-3.2.5-6.8 1-10.4 1zm-5.1-89.1c-5.2.5-10.3 2.6-15.5 5.7-12.4 7.2-19.6 21.1-19.1 35C15 63.4 20.7 74.3 30 81.5s21.1 9.8 32.5 7.2c7.2-1.5 13.4-4.6 18.5-9.8-18.5-1.5-34.5-15.5-39.1-34.5-2.1-11.4.5-23.7 7.2-33.5z" fill="#fff" opacity="1" data-original="#fff" class=""></path></g></svg>